<svg xmlns="http://www.w3.org/2000/svg" viewBox="0 0 24 24" width="24" height="24" fill="currentColor"><path d="M10.75 6.5a.75.75 0 0 0 0 1.5h6.5a.75.75 0 0 0 0-1.5h-6.5ZM6 7.25a.75.75 0 0 1 .75-.75h.5a.75.75 0 0 1 0 1.5h-.5A.75.75 0 0 1 6 7.25Zm4.75 9.25a.75.75 0 0 0 0 1.5h6.5a.75.75 0 0 0 0-1.5h-6.5Zm-4 .75a.75.75 0 0 1 .75-.75h.5a.75.75 0 0 1 0 1.5h-.5a.75.75 0 0 1-.75-.75ZM2 4.75C2 3.784 2.784 3 3.75 3h16.5c.966 0 1.75.784 1.75 1.75v4.5A1.75 1.75 0 0 1 20.25 11H3.75A1.75 1.75 0 0 1 2 9.25Zm1.75-.25a.25.25 0 0 0-.25.25v4.5c0 .138.112.25.25.25h16.5a.25.25 0 0 0 .25-.25v-4.5a.25.25 0 0 0-.25-.25ZM2 14.75c0-.966.784-1.75 1.75-1.75h16.5c.966 0 1.75.784 1.75 1.75v4.5A1.75 1.75 0 0 1 20.25 21H3.75A1.75 1.75 0 0 1 2 19.25Zm1.75-.25a.25.25 0 0 0-.25.25v4.5c0 .138.112.25.25.25h16.5a.25.25 0 0 0 .25-.25v-4.5a.25.25 0 0 0-.25-.25Z"/></svg>
